HIERARCHY
ROOT Hips
{
  OFFSET 38.7231 90.9864 -100.312
  CHANNELS 6 Xposition Yposition Zposition Zrotation Xrotation Yrotation
  JOINT RightUpLeg
  {
    OFFSET -8.9458 -8.66707 0.101652
    CHANNELS 3 Zrotation Xrotation Yrotation
    JOINT RightLeg
    {
      OFFSET 0 -44.4227 1.3727
      CHANNELS 3 Zrotation Xrotation Yrotation
      JOINT RightFoot
      {
        OFFSET 0.253549 -42.0924 -1.46059
        CHANNELS 3 Zrotation Xrotation Yrotation
        JOINT RightToes
        {
          OFFSET 0.04 -4.41509 8.4991
          CHANNELS 3 Zrotation Xrotation Yrotation
          End Site
          {
            OFFSET -0.08 -0.137448 9.77979
          }
        }
      }
    }
  }
  JOINT Spine
  {
    OFFSET 0 11.8905 0
    CHANNELS 3 Zrotation Xrotation Yrotation
    JOINT Spine1
    {
      OFFSET 0 25.6574 0.127663
      CHANNELS 3 Zrotation Xrotation Yrotation
      JOINT HEad
      {
        OFFSET 0 8.73416 0.011341
        CHANNELS 3 Zrotation Xrotation Yrotation
        End Site
        {
          OFFSET -0.29 12.7742 2.51395
        }
      }
      JOINT LeftShoulder1
      {
        OFFSET 8.99 -0.362252 -0.22
        CHANNELS 3 Zrotation Xrotation Yrotation
        JOINT LeftArm
        {
          OFFSET 10.2827 -0.00338 0.322123
          CHANNELS 3 Zrotation Xrotation Yrotation
          JOINT LeftForeArm
          {
            OFFSET 32.7669 0.099144 -1.42434
            CHANNELS 3 Zrotation Xrotation Yrotation
            JOINT LeftHand
            {
              OFFSET 27.5643 0.085362 1.02216
              CHANNELS 3 Zrotation Xrotation Yrotation
              End Site
              {
                OFFSET 16.7443 -0.6 1.50291
              }
            }
          }
        }
      }
      JOINT RightShoulder
      {
        OFFSET -8.99 -0.362252 -0.22
        CHANNELS 3 Zrotation Xrotation Yrotation
        JOINT RightArm
        {
          OFFSET -10.2827 -0.00338 0.322123
          CHANNELS 3 Zrotation Xrotation Yrotation
          JOINT RightForeArm
          {
            OFFSET -32.8971 0.099144 -1.42434
            CHANNELS 3 Zrotation Xrotation Yrotation
            JOINT RightHand
            {
              OFFSET -27.4921 0.085362 1.02216
              CHANNELS 3 Zrotation Xrotation Yrotation
              End Site
              {
                OFFSET -16.6312 -0.6 1.50291
              }
            }
          }
        }
      }
    }
  }
  JOINT LeftUpLeg
  {
    OFFSET 8.9458 -8.66707 0.101652
    CHANNELS 3 Zrotation Xrotation Yrotation
    JOINT LeftLeg
    {
      OFFSET 0 -44.4227 1.3727
      CHANNELS 3 Zrotation Xrotation Yrotation
      JOINT LeftFoot
      {
        OFFSET -0.253549 -42.0924 -1.46059
        CHANNELS 3 Zrotation Xrotation Yrotation
        JOINT LeftToes
        {
          OFFSET -0.04 -4.41509 8.4991
          CHANNELS 3 Zrotation Xrotation Yrotation
          End Site
          {
            OFFSET 0.08 -0.047448 9.77979
          }
        }
      }
    }
  }
}
MOTION
Frames:	11
Frame Time:	0.0166667
0.00000 96.00000 0.00000 0.00000 0.00000 0.00000 0.00000 0.00000 0.00000 0.00000 0.00000 0.00000 0.00000 0.00000 0.00000 0.00000 0.00000 0.00000 0.00000 0.00000 0.00000 0.00000 0.00000 0.00000 0.00000 0.00000 0.00000 0.00000 0.00000 0.00000 0.00000 0.00000 0.00000 0.00000 0.00000 0.00000 0.00000 0.00000 0.00000 0.00000 0.00000 0.00000 0.00000 0.00000 0.00000 0.00000 0.00000 0.00000 0.00000 0.00000 0.00000 0.00000 0.00000 0.00000 0.00000 0.00000 0.00000 0.00000 0.00000 0.00000 0.00000 0.00000 0.00000 
53.476 90.8928 -107.828 2.39663 0.406299 -87.149 -5.80208 2.37569 -1.05003 2.97565 30.1601 -6.58495 3.90837 -17.6498 0.110079 -20.5873 -31.8265 -6.21984 -0.0209668 6.344 4.50247 0.796012 12.6146 9.29852 -10.0603 -10.5 7.60442 -9.93923e-016 -3.97569e-016 3.18055e-015 -69.4712 -29.8335 -9.47075 -9.98632 35.36 -113.427 20.2662 3.89125 -29.7606 13.1486 3.02824 16.1697 73.4627 -23.7211 45.2999 -14.6931 40.1401 141.897 -19.5748 15.5041 -37.9257 17.0748 -31.3942 8.33739 1.51603 62.0521 -13.7096 -19.5527 -2.61046 0.871893 10.5204 -12.5387 5.12514 
53.8235 91.5585 -107.359 2.82566 -0.184122 -87.8908 -6.95508 0.547616 -1.34591 2.81027 31.4895 -5.90902 4.26613 -15.8915 0.0860526 -20.5553 -31.6483 -6.58705 -0.477289 6.50302 4.595 0.105465 12.8245 9.52353 -9.70204 -11.3067 8.21602 1.59028e-015 -1.59028e-015 -3.18055e-015 -68.2629 -30.1215 -9.18889 -10.3099 35.2381 -113.758 19.5354 4.06812 -30.0557 12.8671 2.99793 16.2646 73.6293 -23.9017 45.8188 -13.9671 41.3892 140.871 -20.422 15.5336 -36.693 17.8885 -32.9199 8.95896 -0.0912199 61.9017 -13.0482 -20.9217 2.89066 1.91101 12.72 -15.9928 2.54413 
54.1102 92.3581 -106.831 3.33186 -0.845987 -88.9157 -8.35503 -1.9935 -1.86433 2.77917 33.6277 -5.17963 4.71702 -13.0998 0.0196695 -20.8865 -31.8448 -7.28254 -0.942447 6.59609 4.69361 -0.649431 12.9035 9.76714 -9.39353 -11.6275 8.98021 1.19271e-015 1.49089e-015 -6.36111e-015 -66.5944 -31.5487 -9.35509 -10.5997 35.4273 -113.71 19.2604 4.12766 -30.2112 12.6019 2.9908 16.4918 73.7007 -23.9998 46.2945 -13.3636 42.4039 139.896 -21.2306 15.5511 -35.5472 18.6527 -33.8341 9.52288 -1.59651 60.8736 -11.7856 -21.8317 7.11223 2.77834 14.0479 -18.5256 0.13054 
54.3368 93.1831 -106.27 3.84977 -1.49253 -90.1142 -9.78426 -5.05077 -2.66612 2.7545 36.3614 -4.55265 5.26164 -9.5973 -0.0945736 -21.2234 -32.0629 -7.9208 -1.40478 6.63134 4.77612 -1.36056 12.8712 9.96648 -9.22197 -11.5208 9.84911 2.38542e-015 -2.98177e-016 1.59028e-015 -64.5801 -34.3294 -9.95514 -11 36.0778 -112.974 19.4853 4.05926 -30.1926 12.3297 3.00018 16.8388 73.7009 -24.028 46.811 -12.9684 43.1726 139.061 -21.9618 15.5645 -34.5684 19.2125 -34.0668 9.86543 -2.48122 59.0136 -10.3767 -21.8517 9.52576 3.2275 14.4971 -19.6911 -1.37871 
54.5003 93.9202 -105.692 4.31039 -2.03665 -91.3238 -11.0694 -8.35237 -3.7413 2.69224 39.435 -4.23832 5.89778 -5.80546 -0.255667 -21.2988 -32.0814 -8.14337 -1.82453 6.6236 4.81071 -1.92931 12.7667 10.0466 -9.21969 -11.1129 10.7716 -3.97569e-016 -2.48481e-015 -0 -62.463 -38.4842 -11.0402 -11.7 37.2912 -111.169 20.1539 3.89066 -29.953 12.0344 3.01862 17.2812 73.6601 -24.0288 47.4336 -12.8169 43.7257 138.412 -22.5828 15.5809 -33.8097 19.4307 -33.6377 9.81395 -2.44812 56.4171 -9.16493 -20.992 10.0368 3.18549 14.0808 -19.2857 -1.79024 
54.589 94.4643 -105.1 4.65653 -2.40503 -92.3708 -12.1365 -11.5856 -4.98022 2.7294 42.5816 -4.48894 6.55464 -2.17327 -0.450781 -21.1245 -31.9497 -7.86997 -2.13108 6.58325 4.76756 -2.28671 12.6284 9.94459 -9.35483 -10.5441 11.7066 3.97569e-016 -9.93923e-016 -0 -60.6242 -43.7236 -12.7904 -12.8833 39.0259 -107.918 21.1187 3.68504 -29.4389 11.713 3.03921 17.7832 73.6062 -24.0524 48.1801 -12.8941 44.1065 137.958 -23.0585 15.6042 -33.3072 19.2564 -32.6179 9.27031 -1.51459 53.2319 -8.33193 -19.6957 8.85931 2.78501 12.7798 -17.3541 -1.32538 
54.5881 94.7355 -104.477 4.85032 -2.56028 -93.1168 -13.02 -14.4424 -6.20341 3.1781 45.537 -5.54377 7.10061 0.9221 -0.648145 -20.9828 -31.9441 -7.36598 -2.25113 6.51465 4.63092 -2.4088 12.4803 9.63275 -9.55381 -9.92522 12.6298 0 1.39149e-015 -0 -59.5725 -49.4442 -15.5414 -14.6927 41.0566 -102.96 22.177 3.52103 -28.6243 11.3773 3.05643 18.2988 73.5555 -24.1304 49.0123 -13.1504 44.3491 137.689 -23.3517 15.6347 -33.0861 18.7601 -31.1188 8.26534 0.0191375 49.6864 -7.93293 -18.5508 6.45261 2.24171 10.7751 -14.3459 -0.314352 
54.4907 94.697 -103.805 4.87461 -2.52224 -93.4908 -13.8185 -16.6656 -7.22974 4.35531 48.0462 -7.5029 7.42549 3.24937 -0.807391 -21.2112 -32.3684 -7.05268 -2.15912 6.42268 4.40578 -2.32348 12.3319 9.13158 -9.74354 -9.32204 13.5322 -5.96354e-016 -4.22417e-015 -1.59028e-015 -59.8584 -54.875 -19.6904 -17.2309 43.024 -96.2592 23.1056 3.45923 -27.5844 11.0481 3.06607 18.7746 73.5076 -24.26 49.8498 -13.5203 44.4697 137.585 -23.4331 15.6709 -33.1601 18.1086 -29.3151 6.95958 1.6972 46.1315 -7.96409 -17.9488 3.4256 1.71068 8.55993 -11.1025 0.944887 
54.3042 94.3654 -103.074 4.73199 -2.37441 -93.4978 -14.6297 -18.0872 -7.92839 6.33294 49.88 -10.189 7.5105 4.73168 -0.902352 -22.0189 -33.3678 -7.28041 -1.91859 6.31924 4.11778 -2.1054 12.1868 8.5056 -9.88625 -8.77336 14.4102 -3.93114e-032 1.41634e-015 1.59028e-015 -61.7966 -59.2934 -25.3809 -20.5466 44.5126 -88.0963 23.687 3.51031 -26.5629 10.7479 3.0649 19.1554 73.4439 -24.4053 50.5978 -13.9333 44.4717 137.63 -23.29 15.709 -33.525 17.4882 -27.4832 5.59936 3.07503 43.0613 -8.44422 -17.9353 0.37827 1.25033 6.75101 -8.51907 2.16076 
54.0494 93.8056 -102.286 4.4446 -2.24254 -93.2072 -15.5056 -18.6519 -8.22809 8.81046 50.8904 -13.125 7.42025 5.38333 -0.930224 -23.4291 -34.8585 -8.21325 -1.67235 6.22315 3.80789 -1.85445 12.0522 7.8457 -9.99044 -8.32242 15.2549 -6.62086e-032 1.19271e-015 3.18055e-015 -64.9905 -62.2289 -32.0004 -24.5475 45.1198 -79.1472 23.7268 3.63042 -25.9618 10.4899 3.04964 19.3926 73.3375 -24.5161 51.1776 -14.3184 44.3594 137.8 -22.9335 15.7424 -34.1498 17.027 -25.9969 4.45973 3.8539 41.0584 -9.45379 -18.3037 -2.20872 0.877425 5.81661 -7.1818 3.06089 
